<?xml version="1.0" encoding="UTF-8"?>
<svg id="Lager_1" data-name="Lager 1" xmlns="http://www.w3.org/2000/svg" viewBox="0 0 288.35 319.69">
  <defs>
    <style>
      .cls-1 {
        fill: #000;
      }

      .cls-1, .cls-2, .cls-3, .cls-4 {
        stroke-width: 0px;
      }

      .cls-2 {
        fill: gray;
      }

      .cls-3 {
        fill: #bfbfbf;
      }

      .cls-4 {
        fill: #fff;
      }
    </style>
  </defs>
  <g>
    <polyline class="cls-4" points="272.58 71.55 145.58 196.55 17.67 75.72"/>
    <polyline class="cls-3" points="272.88 71 145.88 196 145.88 75"/>
    <polyline class="cls-2" points="264.88 72 146 188.95 23.06 72.63"/>
    <polygon class="cls-4" points="274.04 71.17 144.88 145 16.28 75.6 145.88 0 274.04 71.17"/>
    <g>
      <g>
        <path class="cls-4" d="M73.04,47.09c-6.4-11.69-.46-27.27,13.28-34.78,13.73-7.52,30.06-4.13,36.46,7.56"/>
        <path class="cls-4" d="M122.77,19.86c1.52,2.77-8.39,11.11-22.12,18.63-13.73,7.52-26.1,11.37-27.61,8.6"/>
      </g>
      <g>
        <circle class="cls-1" cx="93.53" cy="24.56" r="8.5"/>
        <path class="cls-1" d="M82.79,40.63c-.37,0-.74-.07-1.1-.21-1.54-.61-2.3-2.35-1.69-3.89.23-.58.44-1.15.65-1.72,1.57-4.26,3.35-9.08,10.85-13.7,8.34-5.14,15.22-3.97,18.91-3.35l.26.04c1.63.28,2.74,1.82,2.46,3.46-.28,1.63-1.83,2.73-3.46,2.46l-.27-.05c-3.52-.6-8.34-1.41-14.76,2.54-5.73,3.53-6.9,6.68-8.37,10.67-.22.61-.45,1.22-.69,1.84-.46,1.18-1.6,1.9-2.79,1.9Z"/>
      </g>
    </g>
    <polyline class="cls-3" points="145.76 .37 273.93 71.54 144.76 145.37"/>
    <g>
      <g>
        <path class="cls-4" d="M171.11,19.5c6.4-11.69,22.72-15.08,36.46-7.56s19.68,23.09,13.28,34.78"/>
        <path class="cls-4" d="M220.85,46.73c-1.52,2.77-13.88-1.08-27.61-8.6-13.73-7.52-23.64-15.86-22.12-18.63"/>
      </g>
      <g>
        <circle class="cls-1" cx="199.62" cy="24.58" r="8.5"/>
        <path class="cls-1" d="M211.42,39.92c-1.2,0-2.33-.72-2.79-1.91l-.1-.25c-1.3-3.33-3.07-7.89-9.76-11.36-5.97-3.11-9.28-2.49-13.45-1.7-.64.12-1.28.24-1.94.35-1.63.27-3.18-.84-3.45-2.47-.27-1.63.84-3.18,2.47-3.45.61-.1,1.21-.21,1.81-.33,4.46-.84,9.52-1.79,17.33,2.28,8.69,4.52,11.22,11.02,12.58,14.51l.1.25c.6,1.54-.16,3.28-1.7,3.89-.36.14-.73.21-1.09.21Z"/>
      </g>
    </g>
  </g>
  <g>
    <path class="cls-4" d="M79.43,285.27c0,.41-.14.61-.42.61-.44,0-3.19-.09-8.27-.28-.14,4.75-.21,8.55-.21,11.42,0,1.79.07,4.47.2,8.05.13,3.58.2,6.27.2,8.06,0,.33-.23.49-.68.49-.28,0-.71-.02-1.28-.07s-1.01-.07-1.31-.07c-.28,0-.71.02-1.28.07s-1,.07-1.28.07c-.39,0-.58-.19-.58-.58,0-1.77.07-4.44.22-8,.15-3.56.22-6.23.22-8.02,0-2.77-.09-6.58-.26-11.42-4.02.25-6.96.37-8.83.37-.19,0-.28-.08-.28-.23,0-.28.07-.68.21-1.21.17-.68.27-1.09.3-1.21.03-.54.14-1.3.33-2.26.08-.2.21-.3.4-.3l.28.02c5.51.33,9.14.49,10.9.49,1.56,0,4.1-.12,7.63-.35,2.41-.16,3.42-.23,3.01-.23.41,0,.63.14.68.42-.03-.17-.05.58-.05,2.26,0,.2.02.52.07.95.05.43.07.75.07.97Z"/>
    <path class="cls-4" d="M102.59,312.8c0,.58-.16.86-.49.86-.48,0-1.21,0-2.19-.02-.98-.02-1.71-.02-2.2-.02-.39,0-.58-.26-.58-.77,0-.75.03-1.88.08-3.39s.08-2.65.08-3.41c0-.72-.03-1.8-.08-3.26-.05-1.46-.08-2.55-.08-3.28,0-2.8-1.32-4.2-3.97-4.2-.86,0-1.98.43-3.36,1.28-1.48.92-2.22,1.76-2.22,2.52v13.87c0,.45-.16.68-.49.68-.48,0-1.21,0-2.17-.02-.97-.02-1.69-.02-2.17-.02-.36,0-.54-.21-.54-.63v-11.28c0-1.84-.1-5.74-.3-11.72-.03-1.85-.16-4.59-.4-8.22-.03-.19-.05-.31-.05-.37,0-.26.09-.43.28-.49.26-.09,1.14-.14,2.64-.14.33,0,.82-.06,1.47-.17.65-.12,1.13-.18,1.42-.18.2,0,.3.15.3.44,0,1.46-.06,3.66-.18,6.6-.12,2.93-.17,5.13-.17,6.6,0,.36.06.54.19.56.79-.67,1.82-1.48,3.08-2.43,1.53-.95,3.14-1.42,4.83-1.42,2.93,0,4.94.87,6.05,2.62.79,1.28,1.19,3.3,1.19,6.07,0,.48-.01,1.23-.04,2.23-.02,1-.03,1.75-.03,2.23,0,1,.01,2.48.05,4.46.03,1.98.05,3.46.05,4.44Z"/>
    <path class="cls-4" d="M126.85,301.08c0,1.15-.5,1.92-1.5,2.31-.67.25-5.49.71-14.45,1.38.2,1.37.96,2.54,2.26,3.5,1.25.92,2.58,1.38,4.02,1.38,2.46,0,4.72-.79,6.77-2.38.25-.2.5-.41.75-.61.12,0,.21.02.25.05s.33.57.88,1.62c.54,1.05.82,1.61.82,1.69,0,.09-.12.27-.37.54-2.29,2.43-5.22,3.64-8.8,3.64s-6.49-1.08-8.64-3.23c-2.15-2.16-3.22-5.03-3.22-8.63,0-3.21,1.03-6,3.08-8.38,2.16-2.48,4.82-3.71,7.96-3.71,2.93,0,5.37,1.07,7.33,3.22,1.91,2.09,2.87,4.62,2.87,7.61ZM121.29,299.66c0-1.29-.51-2.44-1.53-3.43s-2.17-1.49-3.44-1.49c-1.43,0-2.7.58-3.82,1.73-1.11,1.15-1.67,2.44-1.67,3.88,0,.33.28.49.84.49,2.3,0,5.06-.23,8.26-.7.9-.12,1.35-.28,1.35-.47Z"/>
    <path class="cls-4" d="M164.56,285.65c0,.3-.16.44-.49.44-1.21,0-3.21-.07-5.98-.21-2.58-.12-4.58-.17-5.98-.14l-1.7.02c-1.09.02-1.67.04-1.73.07-.31.12-.47.62-.47,1.47v5.63c0,1.06.22,1.59.68,1.59,1.51,0,3.79-.07,6.83-.21,3.04-.14,5.32-.21,6.83-.21.33,0,.49.12.49.37,0,.26-.02.66-.06,1.18s-.06.91-.06,1.18c0,.28.02.71.05,1.27.03.57.05.99.05,1.27,0,.19-.16.28-.49.28-1.07,0-2.71-.03-4.89-.09-2.19-.06-3.83-.09-4.92-.09-2.01,0-3.14.02-3.41.05-.7.08-1.05.37-1.05.86,0,1.4.04,3.5.12,6.3s.12,4.9.12,6.3c0,.47-.19.7-.56.7-.31,0-.77-.04-1.39-.11s-1.09-.1-1.41-.1c-.27,0-.67.02-1.21.07s-.95.07-1.21.07c-.39,0-.58-.17-.58-.51,0-1.73.07-4.33.22-7.8.15-3.47.22-6.07.22-7.8,0-1.6-.16-6.82-.49-15.64v-.3c-.02-.33.18-.51.58-.56.12,0,1.11.02,2.97.07,2.44.05,4.71.05,6.79.02,2.82-.03,6.41-.19,10.76-.47.59-.05.93.21,1,.77-.02.42.02,1.06.09,1.92.19,1.2.28,1.98.28,2.33Z"/>
    <path class="cls-4" d="M180.93,291.69c0,1.71-.12,3.27-.35,4.67-.05.36-.2.54-.47.54-.33,0-.82-.04-1.48-.11-.66-.07-1.16-.1-1.51-.1-1.96,0-3.21.55-3.76,1.66-.33.67-.49,2.06-.49,4.18v2.57c0,.87.04,2.2.1,3.97.07,1.77.11,3.1.11,3.97,0,.42-.18.63-.54.63-.48,0-1.21,0-2.19-.02-.98-.02-1.71-.02-2.2-.02-.36,0-.54-.19-.54-.58,0-1.26.02-3.16.06-5.7.04-2.54.06-4.44.06-5.72,0-3.84-.36-6.93-1.07-9.27-.03-.12-.05-.22-.05-.28,0-.19.1-.32.3-.4.58-.06,1.39-.16,2.43-.28,1.68-.31,2.46-.47,2.33-.47.25,0,.41.46.49,1.38.08.92.22,1.38.42,1.38.03,0,.07-.02.12-.05.64-.41,1.28-.81,1.92-1.21.7-.42,1.42-.73,2.15-.93.61-.19,1.38-.28,2.33-.28,1.21,0,1.82.16,1.82.49Z"/>
    <path class="cls-4" d="M204.65,302.25c0,3.25-1.07,6.03-3.2,8.34-2.18,2.38-4.88,3.57-8.1,3.57s-5.95-1.18-8.12-3.55c-2.13-2.29-3.2-5.06-3.2-8.31s1.07-6.02,3.2-8.31c2.19-2.33,4.9-3.5,8.12-3.5s5.9,1.17,8.08,3.5c2.15,2.27,3.22,5.03,3.22,8.27ZM199.72,302.3c0-1.9-.58-3.52-1.75-4.86-1.21-1.42-2.75-2.12-4.62-2.12s-3.42.7-4.65,2.1c-1.17,1.35-1.75,2.98-1.75,4.88s.59,3.49,1.77,4.86c1.25,1.45,2.79,2.17,4.62,2.17s3.39-.72,4.62-2.17c1.17-1.37,1.75-2.99,1.75-4.86Z"/>
    <path class="cls-4" d="M228.51,291.86c0,1.87-.02,4.67-.05,8.42-.03,3.74-.05,6.55-.05,8.42,0,3.71-.79,6.44-2.38,8.2-1.67,1.87-4.33,2.8-7.99,2.8s-6.39-.67-8.57-2.01c-.34-.22-.51-.4-.51-.56,0,.17.23-.98.7-3.46.05-.26.16-.4.33-.4.08,0,.18.04.3.12,2.33,1.34,4.68,2.01,7.03,2.01,1.54,0,2.82-.34,3.83-1.03,1.17-.78,1.75-1.91,1.75-3.39,0-.33-.03-1.06-.09-2.19-1.73,2.1-3.92,3.15-6.58,3.15-2.88,0-5.25-1.04-7.1-3.11-1.77-1.99-2.66-4.44-2.66-7.36s.86-5.47,2.57-7.54c1.82-2.21,4.19-3.32,7.1-3.32,2.57,0,4.61.99,6.12,2.96.25.33.43.49.54.49.12,0,.19-.14.19-.42,0-.2-.02-.53-.05-.97-.03-.44-.05-.77-.05-.99,0-.93.09-1.4.28-1.4.16,0,1,.14,2.52.43,1.53.29,2.36.46,2.5.53.22.08.33.28.33.61ZM222.91,301.48c0-1.74-.47-3.22-1.42-4.44-1.04-1.32-2.41-1.99-4.11-1.99s-3.04.67-4.09,2.01c-.95,1.21-1.42,2.69-1.42,4.41s.48,3.16,1.45,4.39c1.04,1.34,2.4,2.01,4.06,2.01s3-.67,4.06-2.01c.98-1.23,1.47-2.69,1.47-4.39Z"/>
  </g>
  <g>
    <path class="cls-4" d="M56.86,271.76c0,1.61-.5,2.41-1.49,2.41h-11.81c-.99,0-3.58-3.65-7.76-10.94-3.53-6.16-5.87-10.61-7.04-13.35-1.17-2.64-1.83-4.11-2-4.42-1.03-1.71-2.23-2.62-3.6-2.72-.41-.03-1.56-.05-3.44-.05-4.31,0-6.47.53-6.47,1.59,0,3.15.11,7.86.33,14.12.22,6.27.33,10.96.33,14.07,0,1.13-.43,1.69-1.28,1.69-.65,0-1.63-.05-2.93-.15-1.3-.1-2.28-.15-2.93-.15-.62,0-1.53.05-2.75.15-1.22.1-2.13.15-2.75.15-.86,0-1.28-.39-1.28-1.18,0-3.77.18-9.43.54-16.98.36-7.55.54-13.21.54-16.98,0-3.97-.18-9.94-.54-17.9-.36-7.96-.54-13.93-.54-17.9,0-.75.43-1.13,1.28-1.13.62,0,1.56.05,2.83.15,1.27.1,2.23.15,2.88.15.62,0,1.54-.05,2.77-.15,1.23-.1,2.16-.15,2.77-.15.79,0,1.18.31,1.18.92,0,2.91-.09,7.29-.28,13.15-.19,5.86-.28,10.26-.28,13.2,0,1.34.08,2.17.26,2.52.27.62.98.92,2.11.92,6.64,0,11.51-1.23,14.59-3.7,2.64-2.19,5.14-6.21,7.5-12.07,1.71-4.59,3.42-9.18,5.14-13.77.24-.58.77-.98,1.59-1.18.55-.14,2.36-.21,5.44-.21,3.77,0,5.65.53,5.65,1.59,0,.62-.79,3.39-2.36,8.32-1.85,5.75-4.25,10.82-7.19,15.2-1.95,2.98-4.54,5.98-7.76,8.99-.82.72-1.23,1.37-1.23,1.95,0,.62,1.39,3.68,4.16,9.19,2.4,4.76,4.57,8.58,6.52,11.45,2.16,2.64,5.17,6.69,9.04,12.17.17.31.26.63.26.98Z"/>
    <path class="cls-4" d="M106.12,246.59c0,2.53-1.1,4.23-3.29,5.08-1.47.55-12.07,1.56-31.79,3.03.44,3.01,2.11,5.58,4.98,7.7,2.74,2.02,5.68,3.03,8.83,3.03,5.41,0,10.38-1.75,14.9-5.24.55-.44,1.09-.89,1.64-1.34.27,0,.45.03.54.1.08.07.73,1.26,1.93,3.57,1.2,2.31,1.8,3.55,1.8,3.72,0,.21-.27.6-.82,1.18-5.03,5.34-11.49,8.01-19.36,8.01s-14.28-2.37-19-7.11c-4.72-4.74-7.09-11.07-7.09-18.98,0-7.05,2.26-13.2,6.78-18.44,4.76-5.44,10.6-8.17,17.51-8.17,6.44,0,11.81,2.36,16.13,7.09,4.21,4.59,6.32,10.17,6.32,16.74ZM93.89,243.46c0-2.84-1.12-5.36-3.36-7.55-2.24-2.19-4.77-3.29-7.58-3.29-3.15,0-5.95,1.27-8.4,3.8-2.45,2.53-3.67,5.38-3.67,8.53,0,.72.62,1.08,1.85,1.08,5.07,0,11.13-.51,18.18-1.54,1.99-.27,2.98-.62,2.98-1.03Z"/>
    <path class="cls-4" d="M142.69,225.94c0,3.77-.26,7.19-.77,10.27-.1.79-.45,1.18-1.03,1.18-.72,0-1.81-.08-3.26-.23-1.46-.15-2.56-.23-3.31-.23-4.31,0-7.07,1.22-8.27,3.65-.72,1.47-1.08,4.54-1.08,9.19v5.65c0,1.92.08,4.83.23,8.73.15,3.9.23,6.81.23,8.73,0,.92-.39,1.39-1.18,1.39-1.06,0-2.67-.02-4.83-.05-2.16-.03-3.77-.05-4.83-.05-.79,0-1.18-.43-1.18-1.28,0-2.77.04-6.95.13-12.53.09-5.58.13-9.78.13-12.58,0-8.46-.79-15.25-2.36-20.39-.07-.27-.1-.48-.1-.62,0-.41.22-.7.67-.87,1.27-.14,3.05-.34,5.34-.62,3.7-.68,5.41-1.03,5.14-1.03.55,0,.91,1.01,1.08,3.03.17,2.02.48,3.03.92,3.03.07,0,.15-.03.26-.1,1.4-.89,2.81-1.78,4.21-2.67,1.54-.92,3.12-1.61,4.73-2.05,1.33-.41,3.05-.62,5.14-.62,2.67,0,4.01.36,4.01,1.08Z"/>
    <path class="cls-4" d="M226.41,272.27c0,1.34-.39,2-1.18,2-.51,0-1.29-.05-2.34-.15-1.04-.1-1.84-.15-2.39-.15-.58,0-1.46.03-2.62.1-1.17.07-2.04.1-2.62.1-.72,0-1.08-.8-1.08-2.41s.06-3.93.18-7.06c.12-3.13.18-5.49.18-7.06,0-8.66-.03-13.49-.1-14.48-.27-3.53-.99-5.96-2.16-7.29-1.34-1.44-3.72-2.16-7.14-2.16-2.16,0-4.59,1.03-7.29,3.08-2.81,2.16-4.26,4.28-4.37,6.37-.14,2.67-.21,7.55-.21,14.64,0,1.68.07,4.19.21,7.55.14,3.36.21,5.87.21,7.55,0,.92-.31,1.39-.92,1.39s-1.51-.05-2.7-.15c-1.18-.1-2.08-.15-2.7-.15-.55,0-1.35.03-2.41.1-1.06.07-1.87.1-2.41.1-.69,0-1.03-.5-1.03-1.49,0-1.64.05-4.12.15-7.42.1-3.3.15-5.78.15-7.42v-12.38c0-3.87-.46-6.63-1.39-8.27-1.3-2.33-3.78-3.49-7.45-3.49-2.16,0-4.73.91-7.71,2.72-3.29,1.99-4.93,3.99-4.93,6.01v15c0,1.71.02,4.26.05,7.65.03,3.39.05,5.92.05,7.6,0,.99-.39,1.49-1.18,1.49h-9.55c-.69,0-1.03-.46-1.03-1.39,0-2.77.02-6.94.05-12.51.03-5.56.05-9.73.05-12.51,0-6.27-.67-12.51-2-18.75-.1-.44-.15-.8-.15-1.08,0-.44.15-.7.46-.77,1.27-.14,3.12-.39,5.55-.77,1.13-.34,2.83-.72,5.08-1.13l.41-.05c.41,0,.8,1.21,1.16,3.62s.68,3.62.95,3.62l2.57-2.26c2.02-1.75,4.04-3.13,6.06-4.16,2.91-1.51,5.82-2.26,8.73-2.26,7.88,0,12.89,3.22,15.05,9.66,2.12-2.74,4.76-5,7.91-6.78,3.36-1.92,6.68-2.88,9.96-2.88,6.33,0,10.72,1.85,13.15,5.55,1.75,2.74,2.62,7.07,2.62,12.99,0,1.13-.03,2.88-.1,5.24-.07,2.36-.1,4.11-.1,5.24,0,2.16.05,5.4.15,9.73.1,4.33.15,7.58.15,9.73Z"/>
    <path class="cls-4" d="M249.93,212.74c0,4.21-2.35,6.32-7.04,6.32s-7.14-2.11-7.14-6.32c0-1.88.74-3.44,2.21-4.67,1.37-1.16,3.01-1.75,4.93-1.75s3.57.6,4.96,1.8c1.39,1.2,2.08,2.74,2.08,4.62ZM249.57,226.66c0,2.64-.16,6.62-.49,11.94-.33,5.32-.49,9.32-.49,11.99,0,2.5.05,6.24.15,11.22.1,4.98.15,8.71.15,11.17,0,.72-.31,1.08-.92,1.08h-10.02c-.72,0-1.08-.7-1.08-2.11,0-2.36.06-5.92.18-10.66.12-4.74.18-8.31.18-10.71,0-2.67-.2-6.68-.59-12.02-.39-5.34-.59-9.35-.59-12.02,0-.58.36-.87,1.08-.87.62,0,1.57.09,2.85.26,1.28.17,2.25.26,2.9.26s1.62-.08,2.9-.26c1.28-.17,2.25-.26,2.9-.26.58,0,.87.33.87.98Z"/>
    <path class="cls-4" d="M288.35,264.72c0,.75-.07,1.78-.21,3.08-.17,1.61-.27,2.65-.31,3.13-.04.62-.09.99-.15,1.13-.14.24-.46.48-.98.72-2.81,1.34-7.23,2-13.25,2-8.01,0-12.02-3.63-12.02-10.89,0-2.91.07-7.29.21-13.12.14-5.84.21-10.21.21-13.12,0-1.4-.7-2.16-2.11-2.26-1.27,0-2.52-.02-3.75-.05-.72-.17-1.08-1.57-1.08-4.21,0-.99.07-2.04.21-3.13.1-.82.65-1.32,1.64-1.49.86,0,1.7-.02,2.52-.05,1.58-.07,2.36-.77,2.36-2.11s-.04-3.46-.13-6.27c-.09-2.81-.13-4.91-.13-6.32,0-2.5.48-3.75,1.44-3.75.31,0,3.53.53,9.66,1.59.79.1,1.18.48,1.18,1.13,0,1.51-.11,3.77-.33,6.78-.22,3.01-.33,5.27-.33,6.78,0,.99.46,1.49,1.39,1.49h12.33c.58,0,.87.21.87.62s-.06,1.07-.18,1.98c-.12.91-.18,1.58-.18,2.03,0,.51.02,1.3.05,2.36.03,1.06.05,1.85.05,2.36,0,.65-.48.98-1.44.98-1.37,0-3.44-.09-6.21-.28-2.77-.19-4.85-.28-6.21-.28-.27,0-.48.98-.62,2.93-.17,2.43-.26,5.84-.26,10.22v7.65c0,2.95.27,5,.82,6.16.82,1.78,2.52,2.67,5.08,2.67,1.06,0,2.62-.23,4.67-.69,2.05-.46,3.58-.69,4.57-.69.41,0,.62.31.62.92Z"/>
  </g>
</svg>