<?xml version="1.0" encoding="UTF-8"?>
<svg id="Lager_1" data-name="Lager 1" xmlns="http://www.w3.org/2000/svg" viewBox="0 0 257.77 196.55">
  <defs>
    <style>
      .cls-1 {
        fill: #000;
      }

      .cls-1, .cls-2, .cls-3, .cls-4, .cls-5 {
        stroke-width: 0px;
      }

      .cls-2 {
        fill: #d04000;
      }

      .cls-3 {
        fill: #94b405;
      }

      .cls-4 {
        fill: #94ca3d;
      }

      .cls-5 {
        fill: #fff;
      }
    </style>
  </defs>
  <polyline class="cls-4" points="256.3 71.55 129.3 196.55 1.39 75.72"/>
  <polyline class="cls-3" points="256.6 71 129.6 196 129.6 75"/>
  <polyline class="cls-2" points="248.6 72 129.72 188.95 6.78 72.63"/>
  <polygon class="cls-4" points="257.77 71.17 128.6 145 0 75.6 129.6 0 257.77 71.17"/>
  <g>
    <g>
      <path class="cls-5" d="M56.76,47.09c-6.4-11.69-.46-27.27,13.28-34.78,13.73-7.52,30.06-4.13,36.46,7.56"/>
      <path class="cls-5" d="M106.5,19.86c1.52,2.77-8.39,11.11-22.12,18.63-13.73,7.52-26.1,11.37-27.61,8.6"/>
    </g>
    <g>
      <circle class="cls-1" cx="77.25" cy="24.56" r="8.5"/>
      <path class="cls-1" d="M66.51,40.63c-.37,0-.74-.07-1.1-.21-1.54-.61-2.3-2.35-1.69-3.89.23-.58.44-1.15.65-1.72,1.57-4.26,3.35-9.09,10.85-13.71,8.34-5.14,15.22-3.97,18.91-3.35l.26.04c1.63.28,2.73,1.82,2.46,3.46-.28,1.63-1.82,2.74-3.46,2.46l-.27-.05c-3.52-.6-8.34-1.41-14.76,2.54-5.73,3.53-6.9,6.68-8.37,10.67-.23.61-.45,1.22-.69,1.84-.47,1.18-1.6,1.9-2.79,1.9Z"/>
    </g>
  </g>
  <polyline class="cls-3" points="129.48 .37 257.65 71.54 128.48 145.37"/>
  <g>
    <g>
      <path class="cls-5" d="M154.84,19.5c6.4-11.69,22.72-15.08,36.46-7.56s19.68,23.09,13.28,34.78"/>
      <path class="cls-5" d="M204.57,46.73c-1.52,2.77-13.88-1.08-27.61-8.6-13.73-7.52-23.64-15.86-22.12-18.63"/>
    </g>
    <g>
      <circle class="cls-1" cx="183.35" cy="24.58" r="8.5"/>
      <path class="cls-1" d="M195.14,39.92c-1.2,0-2.33-.73-2.8-1.91l-.1-.25c-1.3-3.33-3.07-7.89-9.76-11.36-5.98-3.11-9.28-2.49-13.46-1.7-.64.12-1.28.24-1.94.35-1.64.27-3.18-.84-3.45-2.47-.27-1.63.84-3.18,2.47-3.45.61-.1,1.21-.21,1.81-.33,4.46-.84,9.52-1.79,17.33,2.28,8.69,4.52,11.22,11.02,12.58,14.51l.1.25c.6,1.54-.16,3.28-1.7,3.89-.36.14-.73.21-1.09.21Z"/>
    </g>
  </g>
</svg>